# xmcd
#
# Track frame offsets:
#	182
#	13792
#	28412
#	43740
#	55545
#	67145
#	80462
#	93945
#	107182
#	121690
#	135100
#	153112
#	165825
#	176710
#	188992
#	204835
#	217995
#	231215
#	243272
#	257877
#	275130
#	289187
#
# Disc length: 4073 seconds
# Revision: 8
# Processed by: cddbd v1.5.2PL0 Copyright (c) Steve Scherf et al.
# Submitted via: dBpowerAMP V12.0
#
DISCID=2e0fe716
DTITLE=Various Artist - Contemporary Country: Hot Country Dancin'
DYEAR=1993
DGENRE=Country
TTITLE0=Brooks and Dunn - Brand New Man
TTITLE1=Sawyer Brown - Some Girls Do
TTITLE2=Patty Loveless - Jealous Bone
TTITLE3=Dwight Yoakam - It Only Hurts When I Cry
TTITLE4=Travis Tritt - Here's A Quarter
TTITLE5=Sammy Kershaw - Cadillac Style
TTITLE6=Carlene Carter - Come On Back
TTITLE7=Alan Jackson - Love's Got A Hold On You
TTITLE8=Diamond Rio - Mirror Mirror
TTITLE9=Hal Ketchum - Small Town Saturday Night
TTITLE10=Michelle Wright - Take It Like A Man
TTITLE11=Aaron Tippin - There Ain't Nothing' Wrong With The Radio
TTITLE12=Mark Chesnutt - Old Flames Have New Names
TTITLE13=Randy Travis - Better Class Of Losers
TTITLE14=Tanya Tucker - Down To My Last Teardrop
TTITLE15=Tracy Lawrence - Runnin' Behind
TTITLE16=Vince Gill - Liza Jane
TTITLE17=Marty Stuart - Hillbilly Rock
TTITLE18=Pam Tillis - Don't Tell Me What To Do
TTITLE19=Rodney Crowell - Lovin' All Night
TTITLE20=Lorrie Morgan - We Both Walk
TTITLE21=John Michael Montgomery - Beer And Bones
EXTD=
EXTT0=
EXTT1=
EXTT2=
EXTT3=
EXTT4=
EXTT5=
EXTT6=
EXTT7=
EXTT8=
EXTT9=
EXTT10=
EXTT11=
EXTT12=
EXTT13=
EXTT14=
EXTT15=
EXTT16=
EXTT17=
EXTT18=
EXTT19=
EXTT20=
EXTT21=
PLAYORDER=
